<svg xmlns="http://www.w3.org/2000/svg" width="110" height="60" viewBox="0 0 110 60" fill="none"><path opacity="0.997" fill-rule="evenodd" clip-rule="evenodd" d="M64.5605 60C52.9678 60 41.3754 60 29.7827 60C30.2089 57.8312 30.6386 55.6631 31.0718 53.4959C42.6645 53.4959 54.2569 53.4959 65.8496 53.4959C65.4301 55.6661 65.0004 57.8342 64.5605 60Z" fill="#2A4FDA"></path><path opacity="0.997" fill-rule="evenodd" clip-rule="evenodd" d="M33.1934 43.4417C44.7861 43.4417 56.3785 43.4417 67.9712 43.4417C67.5485 45.6022 67.1188 47.761 66.6821 49.9187C55.0894 49.9458 43.497 49.9547 31.9043 49.9458C32.3305 47.777 32.7602 45.6089 33.1934 43.4417Z" fill="#2A4FDA"></path><path opacity="0.996" fill-rule="evenodd" clip-rule="evenodd" d="M110 20.4607C110 20.5059 110 20.551 110 20.5962C109.742 21.7657 109.491 22.94 109.248 24.1192C106.205 24.1192 103.161 24.1192 100.117 24.1192C99.8398 25.4381 99.5621 26.757 99.2847 28.0759C102.14 28.0759 104.996 28.0759 107.852 28.0759C107.606 29.2892 107.346 30.4997 107.073 31.7073C104.208 31.7344 101.344 31.7434 98.479 31.7344C98.1946 33.0881 97.9172 34.4431 97.6465 35.7995C100.753 35.7995 103.859 35.7995 106.965 35.7995C106.705 37.035 106.437 38.268 106.16 39.4986C101.29 39.5168 96.42 39.5168 91.5503 39.4986C92.914 33.1558 94.2656 26.8099 95.6055 20.4607C100.404 20.4607 105.202 20.4607 110 20.4607Z" fill="#2A4FDA"></path><path opacity="0.995" fill-rule="evenodd" clip-rule="evenodd" d="M56.2085 20.4607C59.7446 20.4562 63.2803 20.4607 66.8164 20.4743C67.7725 20.4469 68.6947 20.6095 69.5825 20.9621C70.6968 21.5282 71.301 22.445 71.3953 23.7127C71.4648 27.1201 69.8489 29.1753 66.5479 29.8781C66.2543 29.9428 65.9589 29.997 65.6616 30.0407C65.6238 30.0507 65.5969 30.0732 65.5811 30.1084C66.1719 30.136 66.7536 30.2217 67.3267 30.3659C68.3402 30.6355 68.8907 31.2995 68.9783 32.3577C69.0057 32.6279 69.0191 32.8989 69.0186 33.1707C68.9581 34.49 68.891 35.8087 68.8171 37.1274C68.7916 37.8962 68.8005 38.664 68.844 39.4309C72.7045 33.1482 76.5582 26.8609 80.4053 20.5691C82.5806 20.542 84.7559 20.533 86.9312 20.542C88.0846 26.8673 89.2482 33.1908 90.4224 39.5122C88.4171 39.5211 86.4118 39.5122 84.4067 39.4851C84.23 38.2306 84.06 36.9751 83.8965 35.7182C81.3452 35.7092 78.7939 35.7182 76.2427 35.7453C75.5409 36.9943 74.8427 38.2453 74.1479 39.4986C70.4508 39.5122 66.7538 39.5168 63.0566 39.5122C63.0513 39.0149 63.0647 38.5179 63.0969 38.0217C63.2231 36.5767 63.344 35.1314 63.4595 33.6856C63.4748 33.307 63.3899 32.9547 63.2043 32.6287C63.0301 32.4165 62.8106 32.2764 62.5464 32.2087C62.3162 32.155 62.0837 32.1187 61.8481 32.1003C61.3916 32.0957 60.9351 32.0913 60.4785 32.0867C60.0115 32.087 59.5507 32.1049 59.0955 32.1409C58.5667 34.5973 58.043 37.0545 57.5244 39.5122C55.734 39.5211 53.9435 39.5122 52.1533 39.4851C53.5135 33.1453 54.8652 26.8039 56.2085 20.4607ZM60.8276 23.9837C61.8575 23.9736 62.8869 23.9871 63.916 24.0244C64.3022 24.0441 64.6782 24.1164 65.0439 24.2412C65.6619 24.5075 65.975 24.9817 65.9839 25.664C65.8566 27.5949 64.8361 28.5748 62.9224 28.6043C61.9019 28.6179 60.8813 28.6225 59.8608 28.6179C60.1831 27.0732 60.5054 25.5285 60.8276 23.9837ZM82.5806 24.2818C82.6074 24.2818 82.6343 24.2818 82.6611 24.2818C82.9082 26.9199 83.1588 29.5577 83.4131 32.1951C81.6943 32.1997 79.9756 32.1951 78.2568 32.1816C79.7159 29.5577 81.157 26.9245 82.5806 24.2818Z" fill="#2A4FDA"></path><path opacity="0.996" fill-rule="evenodd" clip-rule="evenodd" d="M38.0811 20.4065C41.626 20.402 45.1709 20.4065 48.7158 20.42C49.7511 20.4973 50.7002 20.8225 51.5625 21.3957C52.6934 22.28 53.1456 23.4408 52.9187 24.878C52.6622 26.4584 51.8611 27.6642 50.5151 28.4959C49.6708 28.9848 48.7754 29.3461 47.8296 29.5799C48.7827 29.7314 49.6509 30.0837 50.4346 30.6369C51.0434 31.1379 51.4059 31.784 51.5222 32.5745C51.6852 34.4027 51.1393 35.9745 49.884 37.29C48.6353 38.5387 47.1271 39.2298 45.3589 39.3631C44.752 39.4336 44.1434 39.4786 43.5327 39.4986C40.3726 39.5122 37.2128 39.5168 34.0527 39.5122C35.3818 33.1406 36.7246 26.7721 38.0811 20.4065ZM42.5391 23.8211C43.6313 23.8166 44.7232 23.8211 45.8154 23.8347C47.0167 23.9083 47.5583 24.5452 47.4402 25.7453C47.1297 27.355 46.1584 28.1184 44.5264 28.0352C43.5684 28.0577 42.6105 28.0534 41.6528 28.0217C41.9584 26.6236 42.2539 25.2234 42.5391 23.8211ZM40.9277 31.4634C41.9662 31.4588 43.0045 31.4634 44.043 31.477C46.0061 31.607 46.6192 32.5962 45.8826 34.4444C45.4695 35.2577 44.8116 35.7412 43.9087 35.8943C43.6866 35.9366 43.4629 35.9637 43.2373 35.9756C42.1542 35.9892 41.0709 35.9938 39.9878 35.9892C40.3044 34.4813 40.6178 32.9726 40.9277 31.4634Z" fill="#2A4FDA"></path><path opacity="0.996" fill-rule="evenodd" clip-rule="evenodd" d="M21.4575 20.4607C26.2557 20.4607 31.0538 20.4607 35.8521 20.4607C35.6055 21.6811 35.355 22.9006 35.1001 24.1192C32.0566 24.1192 29.0128 24.1192 25.9692 24.1192C25.6849 25.4366 25.4074 26.7555 25.1367 28.0759C27.9923 28.0759 30.8481 28.0759 33.7036 28.0759C33.4474 29.2962 33.1877 30.5157 32.9248 31.7344C30.0601 31.7255 27.1955 31.7344 24.3311 31.7615C24.0462 33.1041 23.7597 34.4455 23.4717 35.7859C26.5869 35.7905 29.7021 35.8041 32.8174 35.8266C32.5488 37.0461 32.2803 38.2656 32.0117 39.4851C27.142 39.5211 22.2721 39.5211 17.4023 39.4851C18.7609 33.145 20.1127 26.8036 21.4575 20.4607Z" fill="#2A4FDA"></path><path opacity="0.994" fill-rule="evenodd" clip-rule="evenodd" d="M0 35.42C0 35.0588 0 34.6973 0 34.336C0.0532482 33.9873 0.106959 33.635 0.161133 33.2791C1.92464 33.2791 3.68814 33.2791 5.45166 33.2791C5.05815 34.9656 5.71162 35.9005 7.41211 36.084C8.22105 36.1715 9.00883 36.0813 9.77539 35.813C10.7248 35.3932 11.2351 34.6572 11.3062 33.6043C11.2783 33.1097 11.0455 32.7528 10.6079 32.5339C10.4262 32.4455 10.2382 32.3734 10.0439 32.3171C8.42249 31.8878 6.80222 31.4542 5.18311 31.0163C2.20869 30.0672 1.26427 28.1116 2.34985 25.149C2.77447 24.1067 3.42348 23.235 4.29688 22.5339C5.61078 21.5057 7.09677 20.8688 8.75488 20.6233C10.1463 20.4203 11.5428 20.3796 12.9443 20.5013C13.7924 20.5713 14.6159 20.752 15.415 21.0434C17.3554 21.8375 18.1656 23.2873 17.8455 25.3929C17.8049 25.6839 17.7556 25.9729 17.6978 26.2602C15.9253 26.2602 14.1528 26.2602 12.3804 26.2602C12.4064 26.0699 12.4378 25.8802 12.4744 25.691C12.6052 24.6125 12.1442 23.9757 11.0913 23.7805C10.0755 23.61 9.15342 23.8268 8.3252 24.4309C7.74493 24.9226 7.4898 25.5504 7.55981 26.3144C7.63098 26.5941 7.77869 26.8244 8.00293 27.0054C8.18353 27.1417 8.38046 27.2501 8.59375 27.3306C10.0136 27.7317 11.4369 28.12 12.8638 28.4959C13.7459 28.7293 14.5874 29.0637 15.3882 29.4986C16.3881 30.1612 16.8894 31.1008 16.8921 32.3171C16.7666 34.9209 15.585 36.8539 13.3472 38.1165C11.6369 38.9973 9.81965 39.458 7.89551 39.4986C6.58644 39.5639 5.28843 39.4734 4.00146 39.2276C3.01684 39.0423 2.13059 38.6447 1.34277 38.0352C0.557353 37.3398 0.109762 36.468 0 35.42Z" fill="#2A4FDA"></path><path opacity="0.997" fill-rule="evenodd" clip-rule="evenodd" d="M40.1489 10.0542C51.7416 10.0542 63.3341 10.0542 74.9268 10.0542C74.5108 12.216 74.0811 14.375 73.6377 16.5312C62.045 16.5583 50.4526 16.5673 38.8599 16.5583C39.2861 14.3895 39.7157 12.2215 40.1489 10.0542Z" fill="#2A4FDA"></path><path opacity="0.997" fill-rule="evenodd" clip-rule="evenodd" d="M42.2705 0C53.8632 0 65.4556 0 77.0483 0C76.6256 2.16032 76.1959 4.31932 75.7593 6.47696C64.1666 6.50407 52.5741 6.51309 40.9814 6.50407C41.4076 4.33534 41.8373 2.16733 42.2705 0Z" fill="#2A4FDA"></path></svg>